<?xml version="1.0" encoding="UTF-8"?>
<svg id="Capa_6" data-name="Capa 6" xmlns="http://www.w3.org/2000/svg" viewBox="0 0 454.35 384">
  <defs>
    <style>
      .cls-1 {
        fill: #fff;
      }
    </style>
  </defs>
  <g id="Capa_7" data-name="Capa 7">
    <rect class="cls-1" x="193.84" y="196.74" width="31.45" height="44.86"/>
    <polygon class="cls-1" points="110.66 63.18 182.89 63.58 97.17 196.94 135.39 196.94 135.39 157.6 193.84 157.6 193.84 198.07 193.84 241.9 193.84 287.99 135.39 287.99 135.39 241.9 24.11 241.9 24.11 200.88 110.66 63.18"/>
    <g>
      <path class="cls-1" d="M313.66,102.42s-10.39,9.64-15.05,17.68l24.96,1.67s-6.29-15.83-9.91-19.36Z"/>
      <path class="cls-1" d="M284.39,149.44s-2.21,6.44-2.77,15.18l52.32,8.36s.71-12.98-.39-15.19c0,0-43.56-7.26-49.17-8.35Z"/>
      <path class="cls-1" d="M280.71,176.42s47.28,7.38,51.78,8.17c0,0-3.49,14.48-5.15,16.18l-45.01-7.74s-2.24-15.34-1.61-16.61Z"/>
      <path class="cls-1" d="M285.25,205.84l37.98,3.57s-8.46,13.56-10.71,14.51l-21.74-2.12s-4.17-10.37-5.53-15.95Z"/>
      <path class="cls-1" d="M294.13,228.47l11.89,1.95s-4.27,4.48-7.41,6.6c0,0-2.57-3.24-4.48-8.56Z"/>
      <path class="cls-1" d="M295.02,125.54s-3.74,4.41-7.28,13.84l43.87,7.67s-2.1-11.68-5.14-17.06l-31.45-4.45Z"/>
    </g>
    <path class="cls-1" d="M264.95,277.96s-.06-.03-.08-.04c-.01,0-.02,0-.03-.01.04.02.07.03.12.06Z"/>
    <path class="cls-1" d="M264.84,277.9c-.33-.17-.16-.07,0,0h0Z"/>
    <path class="cls-1" d="M261.52,164.56c4.62-39.09,23.51-70.04,44.55-75.82l-.38-.06s-8.45-17.93-6.67-33.33c-52.12,4-93.33,54.51-93.33,116.24,0,48.13,23.42,88.57,59.17,106.33.06.03.12.05.11.03,3.84-14.51,18.46-30.27,19.41-31.28-17.39-12.11-27.25-44.99-22.87-82.11Z"/>
    <path class="cls-1" d="M344.03,63.96l-.1.26s0,0,0,0c0,0-5.44,14.62-16.6,27.85,17.98,11.56,28.28,44.95,23.81,82.74-4.71,39.93-24.33,71.36-45.92,76.15l.63.13c5.33,15.61,6.9,35.05,7.02,36.68,51.88-4.29,92.82-54.67,92.82-116.2,0-48.52-25.46-90.11-61.67-107.63Z"/>
    <path class="cls-1" d="M330.22,59.02s.02,0,.03,0l.14-.36c-4.84-1.43-9.83-2.45-14.92-3.03.02.12,1.51,11.85,4.53,22.64,0,0,8.96-15.85,10.23-19.26Z"/>
    <path class="cls-1" d="M281.36,282.38s-.02,0-.03,0l-.15.36c4.8,1.56,9.76,2.72,14.83,3.43-.01-.12-1.19-11.89-3.92-22.76,0,0-9.38,15.6-10.75,18.97Z"/>
  </g>
</svg>